<?xml version="1.0" encoding="UTF-8"?>
<svg id="Layer_1" xmlns="http://www.w3.org/2000/svg" xmlns:xlink="http://www.w3.org/1999/xlink" version="1.1" viewBox="0 0 577.62 175.83">
  <!-- Generator: Adobe Illustrator 30.4.0, SVG Export Plug-In . SVG Version: 2.1.4 Build 226)  -->
  <defs>
    <style>
      .st0 {
        fill: url(#linear-gradient);
      }

      .st0, .st1, .st2, .st3 {
        fill-rule: evenodd;
      }

      .st1 {
        fill: url(#linear-gradient1);
      }

      .st2 {
        fill: url(#linear-gradient2);
      }

      .st3 {
        fill: url(#linear-gradient3);
      }

      .st4 {
        fill: #171a1b;
      }
    </style>
    <linearGradient id="linear-gradient" x1="152.31" y1="-289.66" x2="152.1" y2="-290.18" gradientTransform="translate(-19047.44 45099.3134) scale(125.82 155.25)" gradientUnits="userSpaceOnUse">
      <stop offset="0" stop-color="#ef2131"/>
      <stop offset="1" stop-color="#fecf2c"/>
    </linearGradient>
    <linearGradient id="linear-gradient1" x1="152.51" y1="-289.68" x2="152.02" y2="-288.74" gradientTransform="translate(-17353.76 36503.2672) scale(114.75 125.78)" gradientUnits="userSpaceOnUse">
      <stop offset="0" stop-color="#fbc52c"/>
      <stop offset=".26" stop-color="#f87130"/>
      <stop offset=".56" stop-color="#ef52e2"/>
      <stop offset="1" stop-color="#661eec"/>
    </linearGradient>
    <linearGradient id="linear-gradient2" x1="152.26" y1="-290.07" x2="152.46" y2="-289.57" gradientTransform="translate(-19097.4499 45078.7587) scale(125.82 155.25)" gradientUnits="userSpaceOnUse">
      <stop offset="0" stop-color="#78f6d8"/>
      <stop offset=".27" stop-color="#77d1f6"/>
      <stop offset=".55" stop-color="#70a4f3"/>
      <stop offset="1" stop-color="#661eec"/>
    </linearGradient>
    <linearGradient id="linear-gradient3" x1="151.83" y1="-288.95" x2="152.32" y2="-289.89" gradientTransform="translate(-17392.69 36453.1539) scale(114.75 125.78)" gradientUnits="userSpaceOnUse">
      <stop offset="0" stop-color="#536eed"/>
      <stop offset=".25" stop-color="#54c3ec"/>
      <stop offset=".56" stop-color="#64d769"/>
      <stop offset="1" stop-color="#fecf2c"/>
    </linearGradient>
  </defs>
  <path class="st4" d="M549.06,48.9c0-2.03.37-3.93,1.12-5.71s1.76-3.32,3.04-4.65,2.78-2.36,4.5-3.12,3.57-1.14,5.54-1.14,3.87.38,5.62,1.14,3.27,1.8,4.56,3.12,2.31,2.87,3.06,4.65c.75,1.78,1.12,3.68,1.12,5.71s-.37,3.93-1.12,5.71-1.77,3.32-3.06,4.65-2.81,2.36-4.56,3.12-3.62,1.14-5.62,1.14-3.82-.38-5.54-1.14-3.22-1.8-4.5-3.12-2.29-2.87-3.04-4.65-1.12-3.68-1.12-5.71ZM551.98,48.9c0,1.68.29,3.24.86,4.69.57,1.44,1.37,2.7,2.38,3.77s2.21,1.91,3.58,2.52,2.86.92,4.46.92,3.13-.31,4.52-.92,2.59-1.46,3.62-2.52,1.83-2.32,2.42-3.77c.59-1.44.88-3,.88-4.69s-.29-3.24-.88-4.69c-.59-1.44-1.39-2.7-2.42-3.77-1.03-1.07-2.23-1.91-3.62-2.52s-2.89-.92-4.52-.92-3.09.31-4.46.92-2.57,1.46-3.58,2.52-1.81,2.32-2.38,3.77c-.57,1.44-.86,3-.86,4.69ZM558.38,42.61c0-.88.44-1.32,1.32-1.32h4.52c1.44,0,2.59.41,3.44,1.24s1.28,1.95,1.28,3.36c0,.59-.09,1.11-.26,1.56s-.39.85-.66,1.18-.56.61-.88.82-.64.36-.96.44v.08s.07.08.12.16c.05.05.11.14.16.26s.13.26.24.42l2.08,4.05c.24.45.29.82.16,1.1s-.43.42-.88.42h-.48c-.75,0-1.27-.32-1.56-.96l-2.32-4.89h-2.48v4.57c0,.85-.41,1.28-1.24,1.28h-.36c-.83,0-1.24-.43-1.24-1.28v-12.5h0ZM563.62,48.46c.77,0,1.37-.23,1.8-.68s.64-1.08.64-1.88-.21-1.38-.64-1.8-1.01-.64-1.76-.64h-2.44v5.01h2.4ZM447.02,58.04c4.52,0,8.36.58,11.51,1.73,3.15,1.15,5.61,2.22,7.38,3.2,1.51.8,2.39,1.86,2.66,3.2.27,1.33.04,2.75-.67,4.26l-1.33,2.4c-.8,1.6-1.82,2.53-3.06,2.8s-2.7.04-4.39-.67c-1.51-.71-3.33-1.44-5.45-2.2s-4.61-1.13-7.45-1.13-5.19.58-6.78,1.73c-1.6,1.15-2.39,2.8-2.39,4.93,0,1.86.82,3.37,2.46,4.53,1.64,1.15,3.72,2.18,6.25,3.06s5.23,1.84,8.11,2.86,5.59,2.33,8.11,3.93,4.61,3.64,6.25,6.13,2.46,5.64,2.46,9.46c0,3.02-.6,5.79-1.8,8.32-1.2,2.53-2.93,4.73-5.19,6.59s-4.99,3.33-8.18,4.4-6.74,1.6-10.64,1.6c-5.5,0-10.13-.8-13.9-2.4s-6.67-3.11-8.71-4.53c-1.51-.89-2.35-2-2.53-3.33s.22-2.75,1.2-4.26l1.6-2.4c.98-1.42,2.06-2.22,3.26-2.4s2.64.18,4.32,1.07c1.6.89,3.66,1.89,6.18,3s5.52,1.66,8.98,1.66c2.93,0,5.23-.62,6.92-1.86,1.68-1.24,2.53-2.93,2.53-5.06,0-1.86-.82-3.35-2.46-4.46-1.64-1.11-3.72-2.13-6.25-3.06s-5.23-1.93-8.11-3-5.59-2.4-8.11-4-4.61-3.64-6.25-6.13-2.46-5.68-2.46-9.59c0-3.29.69-6.22,2.06-8.79,1.37-2.58,3.24-4.71,5.59-6.39,2.35-1.69,5.1-2.97,8.25-3.86s6.5-1.33,10.04-1.33h-.01ZM249.31,58.04c4.52,0,8.36.58,11.51,1.73,3.15,1.15,5.61,2.22,7.38,3.2,1.51.8,2.39,1.86,2.66,3.2.27,1.33.04,2.75-.67,4.26l-1.33,2.4c-.8,1.6-1.82,2.53-3.06,2.8s-2.7.04-4.39-.67c-1.51-.71-3.33-1.44-5.45-2.2-2.13-.75-4.61-1.13-7.45-1.13s-5.19.58-6.78,1.73c-1.6,1.15-2.39,2.8-2.39,4.93,0,1.86.82,3.37,2.46,4.53s3.72,2.18,6.25,3.06c2.53.89,5.23,1.84,8.11,2.86,2.88,1.02,5.59,2.33,8.11,3.93s4.61,3.64,6.25,6.13,2.46,5.64,2.46,9.46c0,3.02-.6,5.79-1.8,8.32-1.2,2.53-2.93,4.73-5.19,6.59s-4.99,3.33-8.18,4.4-6.74,1.6-10.64,1.6c-5.5,0-10.13-.8-13.9-2.4-3.77-1.6-6.67-3.11-8.71-4.53-1.51-.89-2.35-2-2.53-3.33s.22-2.75,1.2-4.26l1.6-2.4c.98-1.42,2.06-2.22,3.26-2.4s2.64.18,4.32,1.07c1.6.89,3.66,1.89,6.18,3s5.52,1.66,8.98,1.66c2.93,0,5.23-.62,6.92-1.86,1.68-1.24,2.53-2.93,2.53-5.06,0-1.86-.82-3.35-2.46-4.46s-3.72-2.13-6.25-3.06-5.23-1.93-8.11-3-5.59-2.4-8.11-4c-2.53-1.6-4.61-3.64-6.25-6.13s-2.46-5.68-2.46-9.59c0-3.29.69-6.22,2.06-8.79,1.37-2.58,3.24-4.71,5.59-6.39,2.35-1.69,5.1-2.97,8.25-3.86s6.5-1.33,10.04-1.33h0ZM491.83,33c3.72,0,5.59,1.86,5.59,5.59v27.44c0,.89-.02,1.66-.07,2.33s-.11,1.27-.2,1.8c-.09.62-.13,1.15-.13,1.6h.27c.8-1.6,1.93-3.22,3.39-4.86s3.19-3.13,5.19-4.46,4.26-2.4,6.78-3.2c2.52-.8,5.25-1.2,8.18-1.2,7.54,0,13.37,2.04,17.49,6.13,4.12,4.08,6.18,10.66,6.18,19.71v38.09c0,3.73-1.86,5.59-5.59,5.59h-5.72c-3.72,0-5.59-1.86-5.59-5.59v-34.63c0-4.17-.71-7.53-2.13-10.06s-4.26-3.8-8.51-3.8c-2.93,0-5.61.58-8.05,1.73s-4.5,2.73-6.18,4.73-2.99,4.37-3.92,7.13-1.4,5.73-1.4,8.92v25.97c0,3.73-1.86,5.59-5.59,5.59h-5.72c-3.72,0-5.59-1.86-5.59-5.59V38.59c0-3.73,1.86-5.59,5.59-5.59h5.73ZM403.46,59.64c3.64,0,5.45,1.86,5.45,5.59v56.74c0,3.73-1.82,5.59-5.45,5.59h-5.85c-3.64,0-5.45-1.86-5.45-5.59v-56.74c0-3.73,1.82-5.59,5.45-5.59,0,0,5.85,0,5.85,0ZM290.6,59.64c3.37,0,5.36,1.64,5.99,4.93l10.91,39.69c.18.98.33,1.86.47,2.66s.29,1.55.47,2.26c.18.8.31,1.55.4,2.26h.27c.09-.71.22-1.47.4-2.26.18-.71.33-1.47.47-2.26s.33-1.69.6-2.66l11.44-39.69c.62-3.2,2.66-4.8,6.12-4.8h5.05c3.28,0,5.32,1.6,6.12,4.8l11.31,39.69c.27.98.47,1.86.6,2.66s.29,1.55.47,2.26c.18.8.31,1.55.4,2.26h.27c.09-.71.22-1.47.4-2.26.18-.71.33-1.47.47-2.26s.33-1.69.6-2.66l10.77-39.69c.8-3.29,2.84-4.93,6.12-4.93h6.12c2.04,0,3.46.58,4.26,1.73.8,1.15.93,2.66.4,4.53l-17.42,57.01c-.89,3.11-2.97,4.66-6.25,4.66h-8.91c-3.37,0-5.45-1.6-6.25-4.8l-10.24-33.96c-.27-.89-.49-1.78-.67-2.66s-.35-1.69-.53-2.4c-.18-.8-.31-1.55-.4-2.26h-.27c-.18.71-.35,1.47-.53,2.26-.18.71-.35,1.51-.53,2.4s-.4,1.78-.67,2.66l-10.24,33.96c-.8,3.2-2.84,4.8-6.12,4.8h-9.18c-3.19,0-5.23-1.55-6.12-4.66l-17.56-57.01c-.53-1.86-.38-3.37.47-4.53s2.24-1.73,4.19-1.73h6.38-.05Z"/>
  <g>
    <path class="st0" d="M50.01,167.27c35.32,16.89,78.91,8.53,105.25-22.85,31.21-37.19,26.37-92.64-10.83-123.84l-24.73,29.46c29.06,24.38,32.85,67.69,8.46,96.75-19.44,23.17-51.46,30.9-78.15,20.47"/>
    <path class="st1" d="M50.01,167.27c35.32,16.89,78.91,8.53,105.25-22.85,3.23-3.84,6.06-7.88,8.52-12.07,4.16-25.84-4.99-53.16-26.5-71.21-5.47-4.59-11.38-8.28-17.57-11.1,29.05,24.38,32.84,67.69,8.46,96.75-19.44,23.17-51.46,30.9-78.15,20.47"/>
  </g>
  <path class="st2" d="M125.82,8.56C90.5-8.33,46.91.03,20.57,31.41c-31.21,37.19-26.37,92.64,10.83,123.84l24.73-29.46c-29.06-24.38-32.85-67.69-8.46-96.75C67.11,5.87,99.13-1.87,125.82,8.56"/>
  <path class="st3" d="M125.82,8.56C90.5-8.33,46.91.03,20.57,31.41c-3.23,3.84-6.06,7.88-8.52,12.07-4.16,25.84,4.99,53.16,26.5,71.21,5.47,4.59,11.38,8.28,17.57,11.1-29.05-24.38-32.84-67.69-8.46-96.75C67.11,5.87,99.13-1.87,125.82,8.56"/>
</svg>